<svg xmlns="http://www.w3.org/2000/svg" xmlns:xlink="http://www.w3.org/1999/xlink" width="512" height="512" x="0" y="0" viewBox="0 0 511 512" style="enable-background:new 0 0 512 512" xml:space="preserve"><g><path d="M511.863 338.164a37.61 37.61 0 0 0-21.676-27.512c-13.14-5.855-28.718-3.62-39.726 5.739l-80.637 69.355c-3.332-19.215-20.125-33.875-40.277-33.875h-76.113l-13.817-8.453a142.79 142.79 0 0 0-74.547-20.996h-4.144c-25.035 0-48.985 8.273-68.426 23.219V344c0-11.027-8.973-20-20-20h-52c-11.027 0-20 8.973-20 20v148c0 11.027 8.973 20 20 20h52c7.383 0 13.828-4.031 17.293-10h229.902c33.188 0 64.387-12.926 87.848-36.398l93.937-93.989a37.61 37.61 0 0 0 10.383-33.449zM20.5 492l-.012-148H72.5v148zm466.836-134.523-93.938 93.984C373.715 471.152 347.54 482 319.695 482H92.5V372.742c17.5-19.312 42.238-30.32 68.43-30.32h4.14c22.633 0 44.805 6.246 64.114 18.058l16.214 9.922a10.018 10.018 0 0 0 5.22 1.473h78.929c11.512 0 20.875 9.363 20.875 20.875 0 11.168-8.817 20.316-19.852 20.852H226.836c-5.524 0-10 4.476-10 10 0 5.52 4.473 10 9.996 10l102.715.023c.547 0 1.09-.012 1.629-.031a39.114 39.114 0 0 0 24.668-9.446l107.613-92.554c5.137-4.367 12.434-5.414 18.59-2.672 5.379 2.398 9.082 7.098 10.152 12.887 1.074 5.793-.699 11.5-4.863 15.668zM242.645 296.8a23.227 23.227 0 0 0 14.105 4.755c4.973 0 9.95-1.586 14.102-4.754 10.378-7.914 26.625-20.723 45.086-36.781 4.164-3.625 4.605-9.942.98-14.11-3.625-4.168-9.941-4.605-14.11-.98-18.058 15.71-33.94 28.234-44.085 35.972a3.258 3.258 0 0 1-3.946 0c-14.906-11.367-53.218-41.566-87.043-76.363-22.043-22.676-38.336-43.32-48.507-61.316h58.109c2.644 0 5.187-1.051 7.062-2.922l13-12.973 16.48 33.133a9.996 9.996 0 0 0 9.43 5.535 9.997 9.997 0 0 0 8.86-6.402l17.105-44.54 11.98 86.005a9.994 9.994 0 0 0 8.708 8.546c.402.051.805.075 1.203.075a10 10 0 0 0 9.29-6.309l28.683-72.16 8.914 9.035a9.99 9.99 0 0 0 7.117 2.977h69.062c-6.82 12.078-16.363 25.34-28.507 39.523-3.59 4.195-3.102 10.508 1.093 14.102 4.196 3.59 10.508 3.101 14.098-1.094 30.414-35.527 45.836-66.04 45.836-90.695C426.75 47.129 380.688 0 324.074 0c-24.804 0-48.648 9.129-67.324 25.738C238.07 9.128 214.23 0 189.426 0 132.809 0 86.75 47.129 86.75 105.059c0 29.765 22.422 67.93 66.645 113.421 34.753 35.75 73.992 66.684 89.25 78.32zM189.425 20c20.317 0 39.852 7.656 55.005 21.563 7.023 6.445 17.617 6.445 24.64 0C284.22 27.655 303.754 20 324.074 20c45.586 0 82.676 38.156 82.676 85.059 0 5.488-1.129 11.562-3.348 18.164h-74.054l-16.727-16.961a10.02 10.02 0 0 0-9.11-2.778 10.01 10.01 0 0 0-7.304 6.106l-20.363 51.234-12.11-86.91c-.629-4.52-4.234-8.035-8.765-8.555s-8.84 2.09-10.477 6.348l-22.836 59.477-12.535-25.2a10.005 10.005 0 0 0-7.336-5.414 9.978 9.978 0 0 0-8.68 2.79L173.2 123.222h-63.125c-2.199-6.57-3.324-12.645-3.324-18.164C106.75 58.156 143.84 20 189.426 20zm0 0" fill="#ffffff" opacity="1" data-original="#000000"></path><path d="M335.402 214.93c-1.863 1.86-2.922 4.441-2.922 7.07s1.06 5.21 2.922 7.07a10.091 10.091 0 0 0 7.078 2.93c2.63 0 5.211-1.07 7.07-2.93 1.86-1.86 2.93-4.441 2.93-7.07s-1.07-5.21-2.93-7.07a10.08 10.08 0 0 0-7.07-2.93c-2.64 0-5.21 1.07-7.078 2.93zm0 0" fill="#ffffff" opacity="1" data-original="#000000"></path></g></svg>