<svg xmlns="http://www.w3.org/2000/svg" xmlns:xlink="http://www.w3.org/1999/xlink" width="512" height="512" x="0" y="0" viewBox="0 0 512 512" style="enable-background:new 0 0 512 512" xml:space="preserve" class=""><g><path d="M503.954 38.416a63.174 63.174 0 0 0-29.325-31.424c-15.038-7.707-32.178-9.095-48.265-3.907-16.088 5.188-29.184 16.328-36.872 31.362-8.732 17.036-9.218 37.018-1.561 54.373l-104.6 140.165h-65.348c18.957-15.077 31.63-33.239 39.205-55.862 9.035-26.985 9.901-57.245 8.422-94.378a7.567 7.567 0 0 0-12.569-5.37c-30.784 27.194-38.922 33.331-63.081 42.618a7.564 7.564 0 0 0-4.347 9.776 7.564 7.564 0 0 0 9.776 4.347c23.525-9.043 34.206-16.305 55.558-34.782 1.019 64.909-9.902 104.654-59.896 133.65h-35.018l-.815-8.26 37.458-40.959a7.566 7.566 0 0 0-11.166-10.212l-29.72 32.498c-4.083-12.643-11.812-23.859-22.829-33.264 8.023-10.461 19.462-19.28 34.123-26.261a7.564 7.564 0 0 0 3.578-10.083 7.564 7.564 0 0 0-10.083-3.578c-17.001 8.094-30.369 18.517-39.869 31.034-7.371-4.547-15.727-8.491-25.014-11.759-35.238-12.394-39.251-14.827-71.575-43.392a7.565 7.565 0 0 0-12.57 5.37c-1.746 43.973-.722 86.169 27.171 118.869H15.311c-6.813 0-12.355 5.542-12.355 12.355v11.59a244.28 244.28 0 0 0 7.005 57.999c.074.605 14.279 44.219 25.452 63.668 19.859 34.572 48.046 64.044 81.659 85.513v38.458c0 7.407 6.026 13.432 13.432 13.432h236.138c7.422 0 13.46-6.026 13.46-13.432v-38.46c33.613-21.469 61.8-50.941 81.659-85.513 11.172-19.45 25.378-63.063 25.452-63.668a244.28 244.28 0 0 0 7.005-57.999v-11.59c0-6.813-5.542-12.355-12.355-12.355h-55.734l32.746-103.775c18.576-3.94 34.511-16.025 43.239-33.053a56.32 56.32 0 0 0 1.852-3.992c6.775-15.813 6.769-33.948-.012-49.749zM22.237 126.685c23.678 20.301 32.27 24.414 64.439 35.728 10.523 3.703 19.618 8.352 27.18 13.804.258.212.528.415.82.596.015.009.031.015.046.024 14.751 10.926 23.421 25.007 25.029 41.214l1.079 10.933h-22.283l-42.311-33.558c-3.275-2.597-8.032-2.048-10.629 1.226s-2.048 8.033 1.226 10.629l27.364 21.703H55.975c-27.76-24.167-34.33-55.526-33.738-102.299zM364.97 496.868H132.204v-33.327H364.97zm114.116-252.751v8.813c0 16.888-1.822 33.462-5.328 49.507l-208.564-.027a7.566 7.566 0 0 0-.001 15.132l204.718.027c-15.59 53.524-50.411 100.051-99.558 130.841h-243.53c-49.148-30.79-83.969-77.317-99.558-130.841l203.329-.027a7.566 7.566 0 0 0-.002-15.132l-207.176.027a231.763 231.763 0 0 1-5.328-49.507v-8.813zm-68.824-15.132H302.213l94.158-126.173c5.546 6.957 12.517 12.674 20.578 16.803a63.07 63.07 0 0 0 25.653 6.882zm79.781-146.746-.037.088a40.473 40.473 0 0 1-1.359 2.932c-7.211 14.069-20.893 23.711-36.585 25.79a47.984 47.984 0 0 1-28.214-4.9c-8.752-4.483-15.821-11.415-20.446-20.056a48.14 48.14 0 0 1-.438-44.749c5.849-11.438 15.809-19.91 28.046-23.856a48.239 48.239 0 0 1 14.823-2.347c7.53 0 15.008 1.789 21.906 5.324a48.035 48.035 0 0 1 22.304 23.903c5.241 12.214 5.241 25.664 0 37.871z" fill="#ffffff" opacity="1" data-original="#000000" class=""></path></g></svg>